<svg width="241" height="81" viewBox="0 0 241 81" fill="none" xmlns="http://www.w3.org/2000/svg">
<path d="M122.91 38.0556C124.248 38.0556 125.299 38.4378 126.063 39.2022C126.876 39.9189 127.282 40.9223 127.282 42.2123V56.1874C127.282 58.0985 127.115 59.5797 126.78 60.6308C126.493 61.6819 125.968 62.518 125.203 63.1391C124.439 63.7603 123.292 64.2858 121.763 64.7158C119.9 65.2892 117.75 65.7431 115.313 66.0775C112.924 66.412 110.655 66.5792 108.505 66.5792C103.154 66.5792 98.5192 65.5519 94.6014 63.4975C90.6836 61.3952 87.6736 58.4091 85.5713 54.5391C83.4691 50.6212 82.418 45.9868 82.418 40.6356C82.418 35.38 83.4452 30.8172 85.4997 26.9471C87.6019 23.0293 90.588 20.0193 94.4581 17.917C98.3281 15.8148 102.843 14.7637 108.003 14.7637C114.644 14.7637 120.139 16.4837 124.487 19.9237C125.203 20.4971 125.705 21.0704 125.992 21.6437C126.278 22.2171 126.422 22.9338 126.422 23.7938C126.422 25.036 126.063 26.111 125.347 27.0188C124.678 27.8788 123.866 28.3088 122.91 28.3088C122.289 28.3088 121.716 28.2132 121.19 28.0221C120.712 27.831 120.115 27.5205 119.398 27.0905C117.392 25.8482 115.552 24.9643 113.88 24.4388C112.208 23.9132 110.368 23.6504 108.362 23.6504C98.6148 23.6504 93.7414 29.3121 93.7414 40.6356C93.7414 46.4645 95.0075 50.8124 97.5398 53.6791C100.072 56.5458 103.894 57.9791 109.007 57.9791C111.778 57.9791 114.525 57.6208 117.248 56.9041V45.7956H110.655C109.269 45.7956 108.194 45.4612 107.43 44.7923C106.665 44.1234 106.283 43.1678 106.283 41.9256C106.283 40.6834 106.665 39.7278 107.43 39.0589C108.194 38.39 109.269 38.0556 110.655 38.0556H122.91Z" fill="#2D3357"/>
<path d="M147.082 66.5075C143.355 66.5075 140.083 65.767 137.264 64.2858C134.445 62.7569 132.271 60.6308 130.742 57.9074C129.213 55.1363 128.449 51.8874 128.449 48.1607C128.449 44.434 129.213 41.2089 130.742 38.4856C132.271 35.7144 134.445 33.5883 137.264 32.1072C140.083 30.6261 143.355 29.8855 147.082 29.8855C150.809 29.8855 154.082 30.6261 156.901 32.1072C159.719 33.5883 161.893 35.7144 163.422 38.4856C164.951 41.2089 165.716 44.434 165.716 48.1607C165.716 51.8874 164.951 55.1363 163.422 57.9074C161.893 60.6308 159.719 62.7569 156.901 64.2858C154.082 65.767 150.809 66.5075 147.082 66.5075ZM147.082 58.2658C152.338 58.2658 154.966 54.8974 154.966 48.1607C154.966 44.7684 154.273 42.2362 152.887 40.5639C151.549 38.8917 149.614 38.0556 147.082 38.0556C141.826 38.0556 139.199 41.4239 139.199 48.1607C139.199 54.8974 141.826 58.2658 147.082 58.2658Z" fill="#2D3357"/>
<path d="M197.671 56.9758C201.207 56.9758 202.975 58.4569 202.975 61.4191C202.975 64.4292 201.207 65.9342 197.671 65.9342H171.011C169.53 65.9342 168.336 65.5042 167.428 64.6442C166.568 63.7364 166.138 62.6136 166.138 61.2758C166.138 59.5558 166.831 57.9791 168.216 56.5458L183.983 39.8473C187.519 36.1205 189.286 32.6805 189.286 29.5272C189.286 27.5682 188.737 26.0871 187.638 25.0838C186.539 24.0327 184.939 23.5071 182.836 23.5071C181.021 23.5071 179.348 23.8177 177.82 24.4388C176.291 25.0599 174.523 25.9677 172.516 27.1621C171.704 27.6399 171.083 27.9744 170.653 28.1655C170.223 28.3566 169.721 28.4521 169.148 28.4521C168.144 28.4521 167.284 27.9982 166.568 27.0905C165.851 26.1349 165.493 25.036 165.493 23.7938C165.493 22.886 165.636 22.1454 165.923 21.5721C166.257 20.951 166.783 20.4015 167.499 19.9237C169.649 18.347 172.11 17.1048 174.881 16.197C177.7 15.2415 180.519 14.7637 183.338 14.7637C186.73 14.7637 189.692 15.337 192.225 16.4837C194.805 17.6304 196.788 19.2787 198.173 21.4287C199.559 23.531 200.251 25.9677 200.251 28.7388C200.251 31.6533 199.63 34.3528 198.388 36.8372C197.194 39.3217 195.163 42.0928 192.296 45.1506L181.045 56.9758H197.671Z" fill="#2D3357"/>
<path d="M211.402 66.3642C209.73 66.3642 208.368 65.8625 207.317 64.8592C206.313 63.808 205.812 62.4464 205.812 60.7741V20.6404C205.812 18.9682 206.266 17.6781 207.173 16.7704C208.081 15.8626 209.371 15.4087 211.044 15.4087H235.697C237.513 15.4087 238.85 15.767 239.71 16.4837C240.57 17.2004 241 18.3232 241 19.8521C241 21.3332 240.57 22.4321 239.71 23.1488C238.85 23.8654 237.513 24.2238 235.697 24.2238H216.849V35.8339H234.264C236.079 35.8339 237.417 36.1922 238.277 36.9089C239.137 37.6256 239.567 38.7484 239.567 40.2773C239.567 41.7584 239.137 42.8573 238.277 43.574C237.417 44.2906 236.079 44.649 234.264 44.649H216.849V60.7741C216.849 62.4941 216.347 63.8558 215.344 64.8592C214.388 65.8625 213.074 66.3642 211.402 66.3642Z" fill="#2D3357"/>
<path d="M71.9458 23.1685C71.9458 26.1991 69.3525 28.6559 66.1535 28.6559C62.9546 28.6559 60.3613 26.1991 60.3613 23.1685C60.3613 20.1379 62.9546 17.6812 66.1535 17.6812C69.3525 17.6812 71.9458 20.1379 71.9458 23.1685Z" fill="#FF0054"/>
<path d="M71.9458 58.2268C71.9458 61.4257 69.3525 64.019 66.1535 64.019C62.9546 64.019 60.3613 61.4257 60.3613 58.2268C60.3613 55.0278 62.9546 52.4346 66.1535 52.4346C69.3525 52.4346 71.9458 55.0278 71.9458 58.2268Z" fill="#9E0059"/>
<path d="M47.5575 40.5454C47.5575 47.4484 42.371 53.0444 35.9731 53.0444C29.5752 53.0444 24.3887 47.4484 24.3887 40.5454C24.3887 33.6424 29.5752 28.0464 35.9731 28.0464C42.371 28.0464 47.5575 33.6424 47.5575 40.5454Z" fill="#182E58"/>
<path d="M34.1436 10.9746H37.8018V28.6561H34.1436V10.9746Z" fill="#182E58"/>
<path d="M34.1436 51.8252H37.8018V70.1164H34.1436V51.8252Z" fill="#182E58"/>
<path d="M9.73145 27.3784L11.3091 24.6773L26.9154 33.7924L25.3378 36.4935L9.73145 27.3784Z" fill="#182E58"/>
<path d="M45.0088 47.7104L46.5864 45.0094L62.1927 54.1244L60.6151 56.8255L45.0088 47.7104Z" fill="#182E58"/>
<path d="M11.5322 56.7837L9.8937 54.1191L25.2891 44.6521L26.9276 47.3167L11.5322 56.7837Z" fill="#182E58"/>
<path d="M46.8223 36.4614L45.1837 33.7968L60.5791 24.3298L62.2177 26.9944L46.8223 36.4614Z" fill="#182E58"/>
<path d="M41.4601 75.1921C41.4601 78.3911 39.0033 80.9843 35.9727 80.9843C32.9421 80.9843 30.4854 78.3911 30.4854 75.1921C30.4854 71.9932 32.9421 69.3999 35.9727 69.3999C39.0033 69.3999 41.4601 71.9932 41.4601 75.1921Z" fill="#FFBD00"/>
<path d="M41.4601 5.79222C41.4601 8.99117 39.0033 11.5844 35.9727 11.5844C32.9421 11.5844 30.4854 8.99117 30.4854 5.79222C30.4854 2.59326 32.9421 0 35.9727 0C39.0033 0 41.4601 2.59326 41.4601 5.79222Z" fill="#390099"/>
<path d="M11.5844 58.2268C11.5844 61.4257 8.99117 64.019 5.79222 64.019C2.59326 64.019 0 61.4257 0 58.2268C0 55.0278 2.59326 52.4346 5.79222 52.4346C8.99117 52.4346 11.5844 55.0278 11.5844 58.2268Z" fill="#FF5400"/>
<path d="M11.5844 23.1685C11.5844 26.1991 8.99117 28.6559 5.79222 28.6559C2.59326 28.6559 0 26.1991 0 23.1685C0 20.1379 2.59326 17.6812 5.79222 17.6812C8.99117 17.6812 11.5844 20.1379 11.5844 23.1685Z" fill="#2C9E38"/>
</svg>
